<?xml version="1.0" encoding="UTF-8" standalone="no"?>
<svg
   width="400"
   height="400"
   viewBox="0 0 400 400"
   fill="none"
   version="1.1"
   id="svg10"
   sodipodi:docname="Cyber_Physical_Blueprint_Crest.svg.svg"
   inkscape:export-filename="Cyber_Physical_Blueprint_Crest.svg.png"
   inkscape:export-xdpi="96"
   inkscape:export-ydpi="96"
   xmlns:inkscape="http://www.inkscape.org/namespaces/inkscape"
   xmlns:sodipodi="http://sodipodi.sourceforge.net/DTD/sodipodi-0.dtd"
   xmlns="http://www.w3.org/2000/svg"
   xmlns:svg="http://www.w3.org/2000/svg">
  <defs
     id="defs10" />
  <sodipodi:namedview
     id="namedview10"
     pagecolor="#ffffff"
     bordercolor="#000000"
     borderopacity="0.25"
     inkscape:showpageshadow="2"
     inkscape:pageopacity="0.0"
     inkscape:pagecheckerboard="0"
     inkscape:deskcolor="#d1d1d1" />
  <rect
     width="400"
     height="400"
     fill="#050505"
     id="rect1" />
  <rect
     x="60"
     y="60"
     width="280"
     height="280"
     rx="10"
     stroke="#1A1A1A"
     stroke-width="8"
     fill="none"
     id="rect2" />
  <rect
     x="70"
     y="70"
     width="260"
     height="260"
     rx="8"
     stroke="#333333"
     stroke-width="2"
     fill="none"
     stroke-dasharray="10 5"
     id="rect3" />
  <polygon
     points="200 120, 270 160, 270 240, 200 280, 130 240, 130 160"
     fill="#0A0A0A"
     stroke="#FDFDFD"
     stroke-width="3"
     id="polygon3" />
  <circle
     cx="200"
     cy="200"
     r="15"
     fill="#FFBF00"
     id="circle3" />
  <path
     d="M 200 90 L 200 120"
     stroke="#FFBF00"
     stroke-width="3"
     id="path3" />
  <path
     d="M 190 105 L 210 105"
     stroke="#FFBF00"
     stroke-width="3"
     id="path4" />
  <path
     d="M 285 200 L 315 200"
     stroke="#FFBF00"
     stroke-width="3"
     id="path5" />
  <path
     d="M 300 190 L 300 210"
     stroke="#FFBF00"
     stroke-width="3"
     id="path6" />
  <path
     d="M 85 200 L 115 200"
     stroke="#FFBF00"
     stroke-width="3"
     id="path7" />
  <path
     d="M 100 190 L 100 210"
     stroke="#FFBF00"
     stroke-width="3"
     id="path8" />
  <path
     d="M 170 340 L 230 340"
     stroke="#050505"
     stroke-width="12"
     id="path9" />
  <rect
     x="175"
     y="325"
     width="50"
     height="30"
     rx="4"
     fill="#141414"
     stroke="#FDFDFD"
     stroke-width="2"
     id="rect9" />
  <circle
     cx="185"
     cy="340"
     r="6"
     fill="#FFBF00"
     id="circle9" />
  <line
     x1="200"
     y1="340"
     x2="215"
     y2="340"
     stroke="#333333"
     stroke-width="4"
     id="line9" />
  <path
     d="M 200 280 L 200 325"
     stroke="#555555"
     stroke-width="2"
     stroke-dasharray="4 4"
     id="path10" />
</svg>
